<?xml version="1.0" encoding="UTF-8"?>
<svg width="40px" height="40px" viewBox="0 0 40 40" version="1.1" xmlns="http://www.w3.org/2000/svg" xmlns:xlink="http://www.w3.org/1999/xlink">
    <!-- Generator: Sketch 54.1 (76490) - https://sketchapp.com -->
    <title>Brand / Reclame Aqui / Stamp / RA-1000</title>
    <desc>Created with Sketch.</desc>
    <defs>
        <path d="M6,10.7182553 C10.6732382,14.1507274 14.995567,16 19.738257,25 C26.5,14 32.3762304,7.28289154 40,3 C31.3897042,5.9762391 27.0789974,9 20.1473446,17.1781118 C14.2094361,13.4217388 12.7896398,13.0630019 6,10.7182553 Z" id="path-1"></path>
        <filter x="-8.8%" y="-4.5%" width="111.8%" height="118.2%" filterUnits="objectBoundingBox" id="filter-2">
            <feOffset dx="-1" dy="1" in="SourceAlpha" result="shadowOffsetOuter1"></feOffset>
            <feGaussianBlur stdDeviation="0.5" in="shadowOffsetOuter1" result="shadowBlurOuter1"></feGaussianBlur>
            <feColorMatrix values="0 0 0 0 0   0 0 0 0 0   0 0 0 0 0  0 0 0 0.3 0" type="matrix" in="shadowBlurOuter1"></feColorMatrix>
        </filter>
    </defs>
    <g id="Brand-/-Reclame-Aqui-/-Stamp-/-RA-1000" stroke="none" stroke-width="1" fill="none" fill-rule="evenodd">
        <path d="M19.803617,8.45107163 C19.6933798,14.6030366 18.4665819,18.3496484 15.4683489,23.0157943 C11.9516738,28.4884345 10.0470809,32.6176421 11.4801642,39.2467647 C12.1677823,38.0631093 13.0092958,37.0294487 14.1345882,35.9805713 C15.2642464,37.7033389 16.9538222,38.8630821 18.8715125,40 C14.4412877,28.6145172 22.1491586,24.7287796 23.7819786,14.6910771 C24.0624831,12.542237 24.0952268,10.3270949 23.744869,8 C22.4263887,8.20325397 21.1351948,8.34020584 19.803617,8.45107163" id="Fill-1" fill="#E1C44A"></path>
        <path d="M25.2381388,21 L21.9480934,22.0134805 C19.6043905,31.5201046 21.9685426,37.6804765 25.0949946,40 C25.1926962,37.7665892 25.2404109,36.9319582 25.8584305,34.776932 C28.0374039,35.5552586 30.0357429,35.5409064 32,35.3797211 C28.4259383,32.8835561 25.9947583,30.2372458 25.2381388,21" id="Fill-4" fill="#E1C44A"></path>
        <polygon id="Fill-6" fill="#009C4F" points="20 1 22.2946242 4.57402597 25.9040416 2.02467532 26.817935 6.15584416 31.0959584 4.97792208 30.5209836 9.16753247 34.9493445 9.4987013 32.9540765 13.2441558 37 15.0480519 33.8244512 17.8935065 37 20.9519481 33.0266077 22.5558442 34.9493445 26.5 30.6594523 26.6688312 31.0959584 31.0220779 27.0065162 29.7376623 25.9040416 33.9753247 22.5069428 31.3883117 20 35 17.7066946 31.425974 14.0959584 33.9753247 13.1807463 29.8441558 8.90404158 31.0220779 9.47901637 26.8337662 5.0506555 26.5 7.04592351 22.7558442 3 20.9519481 6.17554883 18.1064935 3 15.0480519 6.97207354 13.4441558 5.0506555 9.4987013 9.34054767 9.33116883 8.90404158 4.97792208 12.9948026 6.26233766 14.0959584 2.02467532 17.4930572 4.61038961"></polygon>
        <path d="M8,17.9993529 C8,24.6261123 13.3724747,30 19.9993501,30 C26.6275253,30 32,24.6261123 32,17.9993529 C32,11.3712991 26.6275253,6 19.9993501,6 C13.3724747,6 8,11.3712991 8,17.9993529" id="Fill-8" fill="#78C348"></path>
        <g id="Fill-11">
            <use fill="black" fill-opacity="1" filter="url(#filter-2)" xlink:href="#path-1"></use>
            <use fill="#FFFFFF" fill-rule="evenodd" xlink:href="#path-1"></use>
        </g>
    </g>
</svg>